<?xml version="1.0" standalone="no"?>
<!DOCTYPE svg PUBLIC "-//W3C//DTD SVG 20010904//EN"
 "http://www.w3.org/TR/2001/REC-SVG-20010904/DTD/svg10.dtd">
<svg version="1.0" xmlns="http://www.w3.org/2000/svg"
 width="295.000000pt" height="279.000000pt" viewBox="0 0 295.000000 279.000000"
 preserveAspectRatio="xMidYMid meet">

<g transform="translate(0.000000,279.000000) scale(0.100000,-0.100000)"
fill="#000000" stroke="none">
<path d="M1421 2294 c-23 -44 -38 -67 -35 -52 3 15 3 37 -1 49 -5 16 -16 -13
-40 -108 -18 -71 -38 -139 -44 -151 -6 -11 -24 -60 -40 -109 l-30 -88 -65 -7
c-141 -14 -249 -68 -339 -168 -141 -157 -167 -383 -67 -569 17 -30 30 -59 30
-64 0 -5 -24 -40 -53 -76 -30 -36 -59 -77 -66 -91 -7 -14 -50 -62 -94 -107
-85 -87 -91 -108 -13 -48 25 19 46 32 46 29 0 -3 -15 -24 -34 -47 -36 -45 -70
-106 -63 -113 2 -2 16 13 31 34 27 40 86 101 86 89 0 -3 -16 -42 -35 -86 -47
-106 -44 -125 5 -29 49 96 63 106 39 27 -10 -33 -19 -69 -19 -80 0 -37 19 -18
39 39 12 31 26 66 31 77 8 18 9 17 5 -5 -13 -77 -16 -140 -6 -140 10 0 41 89
41 117 0 7 5 13 10 13 6 0 10 -24 10 -54 0 -30 4 -57 8 -60 9 -5 32 79 32 115
0 42 18 7 25 -48 7 -55 8 -56 21 -33 7 14 13 33 14 43 0 21 20 23 20 2 0 -25
18 -17 35 15 9 17 19 30 24 30 5 0 11 9 14 21 3 12 10 18 16 14 10 -5 15 7 12
27 0 4 8 12 19 18 11 6 17 16 14 25 -5 11 1 15 20 15 19 0 26 5 26 20 0 11 7
23 15 26 8 4 15 12 15 19 0 9 21 11 88 8 155 -9 273 36 383 146 177 178 197
450 48 648 -38 49 -48 70 -43 88 3 13 12 26 20 29 8 3 14 13 14 23 0 10 7 31
15 47 9 17 16 49 17 73 0 24 4 46 8 48 5 3 6 14 3 24 -3 10 1 29 8 42 9 18 9
24 0 27 -9 3 -7 11 5 29 15 24 15 27 -1 35 -15 9 -14 13 12 40 l28 30 -25 -7
c-14 -4 -38 -14 -55 -22 -22 -11 -16 -3 25 35 30 27 52 53 49 56 -3 3 -32 -11
-65 -32 -89 -57 -92 -58 -54 -16 72 80 83 94 77 100 -3 4 -36 -17 -72 -46
l-66 -53 46 72 c26 40 45 74 43 77 -3 2 -35 -27 -71 -65 -37 -38 -67 -68 -67
-67 0 0 18 37 39 81 21 44 37 82 35 84 -5 6 -5 6 -54 -69 -23 -36 -40 -58 -37
-50 19 51 38 122 34 127 -3 3 -24 -30 -46 -73z m-221 -535 c0 -17 -108 -215
-125 -229 -10 -8 -26 -10 -48 -5 -17 4 -53 9 -79 12 l-48 4 19 -44 c11 -24 31
-56 45 -70 15 -15 26 -37 26 -53 0 -49 -142 -300 -163 -287 -19 12 -58 119
-66 180 -26 220 94 412 304 485 57 20 135 24 135 7z m403 -249 c30 -61 32 -71
32 -181 0 -113 -1 -116 -38 -191 -81 -165 -253 -266 -424 -250 -43 4 -58 24
-28 36 8 3 14 9 13 13 -3 12 36 93 44 93 5 0 8 11 8 25 0 14 5 25 10 25 6 0
10 11 10 25 0 14 4 25 9 25 5 0 11 8 13 18 3 12 10 6 25 -24 28 -52 50 -71 65
-56 8 8 15 9 25 1 9 -8 17 -8 26 -2 6 6 30 14 51 17 59 11 99 47 114 101 10
38 9 56 -5 113 -9 37 -19 69 -22 72 -3 3 -6 12 -6 20 0 16 -24 18 -91 7 -52
-9 -68 15 -32 47 26 24 46 52 54 79 4 9 10 17 15 17 5 0 9 9 9 20 0 11 5 20
10 20 6 0 10 9 10 19 0 11 6 22 13 24 18 7 54 -38 90 -113z"/>
<path d="M2106 1450 c-21 -11 -44 -24 -52 -31 -11 -9 -14 -8 -14 5 0 11 -9 16
-30 16 l-30 0 0 -300 0 -300 30 0 30 0 0 239 0 239 26 32 c77 91 211 91 287 0
40 -48 47 -90 47 -307 l0 -203 26 0 25 0 -3 238 c-3 258 -5 266 -65 326 -64
66 -194 87 -277 46z"/>
<path d="M1730 1140 l0 -300 24 0 24 0 4 183 c3 160 6 187 24 228 24 51 83
115 120 129 28 11 29 19 10 46 -14 19 -15 19 -51 0 -20 -11 -49 -35 -65 -53
-16 -18 -32 -33 -35 -33 -3 0 -5 23 -5 50 0 47 -2 50 -25 50 l-25 0 0 -300z"/>
<path d="M1900 750 c0 -113 4 -180 10 -180 6 0 10 67 10 180 0 113 -4 180 -10
180 -6 0 -10 -67 -10 -180z"/>
<path d="M1496 889 c-20 -16 -26 -29 -26 -59 0 -21 -6 -41 -12 -44 -10 -5 -10
-7 0 -12 8 -4 12 -35 12 -105 0 -59 4 -99 10 -99 6 0 10 40 10 100 l0 100 25
0 c14 0 25 5 25 10 0 6 -11 10 -25 10 -22 0 -25 4 -25 34 0 39 21 66 51 66 11
0 17 5 14 10 -10 16 -30 12 -59 -11z"/>
<path d="M1592 790 c-32 -20 -62 -71 -62 -106 0 -31 33 -85 61 -99 15 -8 47
-15 70 -15 33 0 47 6 75 34 29 29 34 41 34 80 0 56 -22 94 -67 112 -45 19 -72
17 -111 -6z m108 -15 c37 -19 50 -43 50 -93 0 -52 -43 -92 -98 -92 -89 1 -133
109 -69 167 39 36 73 41 117 18z"/>
<path d="M2024 801 c-42 -18 -74 -69 -74 -118 0 -38 5 -50 34 -79 29 -29 41
-34 81 -34 31 0 57 7 76 21 l29 20 0 -20 c0 -12 5 -21 10 -21 6 0 10 43 10
110 0 67 -4 110 -10 110 -5 0 -10 -8 -10 -17 0 -14 -4 -13 -24 6 -26 25 -89
36 -122 22z m113 -46 c32 -32 35 -39 30 -78 -8 -55 -43 -87 -98 -87 -105 0
-137 137 -44 188 39 22 75 14 112 -23z"/>
<path d="M2269 787 c-58 -39 -74 -98 -44 -157 30 -59 127 -80 179 -39 38 30
32 3 -8 -37 -40 -40 -80 -44 -120 -13 -34 27 -47 16 -18 -14 17 -17 34 -22 72
-22 43 0 54 5 82 33 33 32 33 33 36 142 3 75 0 110 -7 110 -6 0 -11 -7 -11
-16 0 -14 -2 -14 -17 1 -39 40 -96 45 -144 12z m104 -8 c95 -49 64 -189 -42
-189 -55 0 -90 32 -98 87 -5 39 -2 46 30 78 37 37 70 44 110 24z"/>
<path d="M1800 680 c0 -67 4 -110 10 -110 6 0 10 32 10 76 0 70 2 78 29 104
33 33 29 48 -6 25 -21 -14 -23 -14 -23 0 0 8 -4 15 -10 15 -6 0 -10 -43 -10
-110z"/>
</g>
</svg>
